<svg xmlns="http://www.w3.org/2000/svg" viewBox="0 0 64 64" role="img" aria-label="Continental Trust Hosting">
  <defs>
    <linearGradient id="g" x1="0" y1="0" x2="1" y2="1">
      <stop offset="0%" stop-color="#1f5ed6"/>
      <stop offset="100%" stop-color="#0d2148"/>
    </linearGradient>
  </defs>
  <rect width="64" height="64" rx="16" fill="url(#g)"/>
  <path d="M17 33c0-8 5-13 13-13 4 0 7 1 9 3l-3 4c-1-1-3-2-5-2-5 0-8 3-8 8s3 8 8 8c2 0 4-1 5-2l3 4c-2 2-5 3-9 3-8 0-13-5-13-13z" fill="#fff"/>
  <path d="M43 20h5v24h-5z" fill="#fff"/>
</svg>
